<?xml version="1.0" standalone="no"?>
<!DOCTYPE svg PUBLIC "-//W3C//DTD SVG 20010904//EN"
 "http://www.w3.org/TR/2001/REC-SVG-20010904/DTD/svg10.dtd">
<svg version="1.0" xmlns="http://www.w3.org/2000/svg"
 width="256.000000pt" height="256.000000pt" viewBox="0 0 256.000000 256.000000"
 preserveAspectRatio="xMidYMid meet">

<g transform="translate(0.000000,256.000000) scale(0.100000,-0.100000)"
fill="#000000" stroke="none">
<path d="M672 2508 c-12 -16 -25 -107 -24 -171 0 -26 10 -84 22 -128 17 -68
19 -90 10 -137 -9 -49 -7 -65 10 -112 11 -30 20 -65 20 -77 0 -12 9 -45 20
-72 19 -48 32 -124 33 -188 0 -18 4 -33 9 -33 4 0 8 -4 8 -10 0 -21 -26 -8
-71 33 -91 85 -174 220 -203 334 -28 109 -17 138 55 138 40 0 51 8 23 19 -28
11 -54 7 -97 -16 -40 -20 -47 -21 -157 -10 -63 6 -163 14 -222 18 l-108 7 0
-411 0 -410 60 -4 c36 -2 60 1 60 7 0 6 5 3 10 -6 5 -8 47 -53 92 -100 78 -78
86 -89 107 -161 21 -67 23 -89 18 -172 -7 -109 -7 -109 73 -81 54 19 118 19
163 0 44 -18 50 -28 55 -85 2 -25 9 -54 16 -65 7 -11 16 -33 20 -48 4 -16 25
-47 47 -70 22 -23 42 -52 45 -64 3 -12 14 -25 24 -28 28 -9 62 -116 41 -130
-16 -9 -13 -51 4 -69 8 -8 21 -41 28 -73 13 -53 16 -58 48 -66 68 -16 126 -16
209 -1 135 24 150 30 150 65 0 26 4 30 22 27 15 -2 24 -13 30 -34 7 -26 14
-32 45 -38 104 -17 260 -2 335 32 30 13 38 23 38 44 0 14 6 29 13 32 8 3 7 8
-5 16 -10 6 -18 21 -18 33 0 13 -7 33 -16 45 -27 38 -11 89 34 110 32 15 37
22 40 54 4 46 17 51 142 53 102 1 102 1 86 56 -9 30 -57 49 -124 49 -33 0 -45
6 -66 31 -33 39 -33 59 0 84 61 45 152 57 240 30 27 -8 52 -15 56 -15 3 0 4
45 1 101 -5 88 -3 110 17 176 22 69 31 81 121 175 87 89 99 99 118 89 22 -12
148 2 164 18 4 4 3 28 -2 52 -15 65 -13 172 4 223 12 36 15 90 13 278 l-3 232
-45 8 c-39 7 -297 -10 -441 -28 -35 -5 -55 -1 -87 15 -44 22 -97 28 -107 11
-4 -6 9 -10 33 -10 69 0 85 -37 58 -135 -42 -157 -186 -360 -268 -380 -41 -10
-36 16 7 47 30 21 33 27 21 37 -13 11 -12 43 4 66 3 6 7 26 9 45 1 19 8 45 16
57 8 12 15 32 15 43 0 12 10 44 21 71 19 44 21 57 11 112 -8 53 -6 79 14 177
27 129 30 193 11 230 -18 36 -60 38 -102 6 -44 -34 -158 -138 -216 -199 l-46
-48 -206 4 -206 5 -133 134 c-73 74 -145 142 -160 151 -32 20 -71 22 -86 5z
m378 -723 c-21 -26 4 -40 66 -39 51 2 55 0 52 -20 -3 -20 -9 -21 -129 -24
-109 -2 -128 0 -133 13 -15 41 45 84 118 85 34 0 37 -2 26 -15z m440 0 c-21
-25 4 -40 65 -39 53 2 75 -12 59 -37 -7 -13 -301 -12 -309 1 -24 40 55 89 144
90 47 0 52 -2 41 -15z m-850 -282 c0 -34 -32 -29 -49 7 -7 17 -10 38 -7 47 6
14 10 13 31 -7 14 -13 25 -34 25 -47z m1258 39 c2 -12 -1 -22 -7 -22 -5 0 -13
-9 -16 -20 -7 -23 -33 -27 -41 -6 -8 21 27 77 46 74 8 -2 16 -13 18 -26z
m-399 -83 c42 -15 39 -24 -11 -39 -59 -16 -328 -26 -328 -12 0 12 28 30 75 49
38 15 222 16 264 2z m-1149 -55 c0 -3 -5 -15 -12 -27 -11 -21 -11 -21 -18 -2
-4 11 -6 23 -3 28 5 8 33 10 33 1z m1796 -8 c18 -18 18 -22 -2 -30 -21 -8 -48
25 -31 36 16 10 16 10 33 -6z m-976 -37 c0 -11 -4 -17 -10 -14 -5 3 -10 13
-10 21 0 8 5 14 10 14 6 0 10 -9 10 -21z m200 11 c0 -5 -4 -10 -10 -10 -5 0
-10 5 -10 10 0 6 5 10 10 10 6 0 10 -4 10 -10z"/>
</g>
</svg>
